<mxfile host="app.diagrams.net" modified="2023-02-02T06:33:37.834Z" agent="5.0 (Windows NT 10.0; Win64; x64) AppleWebKit/537.36 (KHTML, like Gecko) Chrome/109.0.0.0 Safari/537.36" etag="ktbNzC1bcDXm7kpl8_tW" version="20.8.10" type="github">
  <diagram name="Page-1" id="g3N69XfMWkWvZoYk2pfP">
    <mxGraphModel dx="1141" dy="670" grid="1" gridSize="10" guides="1" tooltips="1" connect="1" arrows="1" fold="1" page="1" pageScale="1" pageWidth="850" pageHeight="1100" math="0" shadow="0">
      <root>
        <mxCell id="0" />
        <mxCell id="1" parent="0" />
        <mxCell id="ANa-n4JlMN7LHTpti0L1-1" value="&lt;font style=&quot;font-size: 18px;&quot;&gt;&lt;b&gt;Internet&lt;/b&gt;&lt;/font&gt;" style="ellipse;shape=cloud;whiteSpace=wrap;html=1;" vertex="1" parent="1">
          <mxGeometry x="304" width="220" height="130" as="geometry" />
        </mxCell>
        <mxCell id="ANa-n4JlMN7LHTpti0L1-78" style="edgeStyle=none;rounded=0;orthogonalLoop=1;jettySize=auto;html=1;exitX=0.5;exitY=0;exitDx=0;exitDy=0;entryX=0.55;entryY=0.95;entryDx=0;entryDy=0;entryPerimeter=0;strokeColor=#000000;fontSize=10;fontColor=#007FFF;endArrow=none;endFill=0;" edge="1" parent="1" source="ANa-n4JlMN7LHTpti0L1-3" target="ANa-n4JlMN7LHTpti0L1-1">
          <mxGeometry relative="1" as="geometry" />
        </mxCell>
        <mxCell id="ANa-n4JlMN7LHTpti0L1-3" value="PLDT&lt;br&gt;Network" style="ellipse;whiteSpace=wrap;html=1;" vertex="1" parent="1">
          <mxGeometry x="365" y="150" width="120" height="80" as="geometry" />
        </mxCell>
        <mxCell id="ANa-n4JlMN7LHTpti0L1-60" style="edgeStyle=none;rounded=0;orthogonalLoop=1;jettySize=auto;html=1;exitX=0.5;exitY=1;exitDx=0;exitDy=0;strokeColor=#000000;fontSize=10;fontColor=#007FFF;entryX=0.25;entryY=0.25;entryDx=0;entryDy=0;entryPerimeter=0;endArrow=none;endFill=0;" edge="1" parent="1" source="ANa-n4JlMN7LHTpti0L1-5" target="ANa-n4JlMN7LHTpti0L1-15">
          <mxGeometry relative="1" as="geometry" />
        </mxCell>
        <mxCell id="ANa-n4JlMN7LHTpti0L1-64" value="&lt;font style=&quot;font-size: 10px;&quot;&gt;.46&lt;/font&gt;" style="edgeLabel;html=1;align=center;verticalAlign=middle;resizable=0;points=[];fontSize=18;fontColor=#000000;" vertex="1" connectable="0" parent="ANa-n4JlMN7LHTpti0L1-60">
          <mxGeometry x="0.6272" relative="1" as="geometry">
            <mxPoint x="-2" y="-8" as="offset" />
          </mxGeometry>
        </mxCell>
        <mxCell id="ANa-n4JlMN7LHTpti0L1-66" value=".45" style="edgeLabel;html=1;align=center;verticalAlign=middle;resizable=0;points=[];fontSize=10;fontColor=#000000;" vertex="1" connectable="0" parent="ANa-n4JlMN7LHTpti0L1-60">
          <mxGeometry x="-0.6649" y="-1" relative="1" as="geometry">
            <mxPoint as="offset" />
          </mxGeometry>
        </mxCell>
        <mxCell id="ANa-n4JlMN7LHTpti0L1-62" style="edgeStyle=none;rounded=0;orthogonalLoop=1;jettySize=auto;html=1;entryX=0.4;entryY=0.1;entryDx=0;entryDy=0;entryPerimeter=0;strokeColor=#007FFF;fontSize=10;fontColor=#007FFF;exitX=0.75;exitY=1;exitDx=0;exitDy=0;endArrow=none;endFill=0;" edge="1" parent="1" source="ANa-n4JlMN7LHTpti0L1-5" target="ANa-n4JlMN7LHTpti0L1-15">
          <mxGeometry relative="1" as="geometry" />
        </mxCell>
        <mxCell id="ANa-n4JlMN7LHTpti0L1-68" value="&lt;font color=&quot;#007fff&quot;&gt;.17&lt;/font&gt;" style="edgeLabel;html=1;align=center;verticalAlign=middle;resizable=0;points=[];fontSize=10;fontColor=#000000;" vertex="1" connectable="0" parent="ANa-n4JlMN7LHTpti0L1-62">
          <mxGeometry x="-0.7715" y="2" relative="1" as="geometry">
            <mxPoint as="offset" />
          </mxGeometry>
        </mxCell>
        <mxCell id="ANa-n4JlMN7LHTpti0L1-69" value=".18" style="edgeLabel;html=1;align=center;verticalAlign=middle;resizable=0;points=[];fontSize=10;fontColor=#007FFF;" vertex="1" connectable="0" parent="ANa-n4JlMN7LHTpti0L1-62">
          <mxGeometry x="0.4235" y="1" relative="1" as="geometry">
            <mxPoint as="offset" />
          </mxGeometry>
        </mxCell>
        <mxCell id="ANa-n4JlMN7LHTpti0L1-5" value="" style="image;html=1;image=img/lib/clip_art/networking/Router_Icon_128x128.png" vertex="1" parent="1">
          <mxGeometry x="260" y="750" width="80" height="80" as="geometry" />
        </mxCell>
        <mxCell id="ANa-n4JlMN7LHTpti0L1-61" style="edgeStyle=none;rounded=0;orthogonalLoop=1;jettySize=auto;html=1;entryX=0.563;entryY=0.125;entryDx=0;entryDy=0;entryPerimeter=0;strokeColor=#007FFF;fontSize=10;fontColor=#007FFF;endArrow=none;endFill=0;" edge="1" parent="1" source="ANa-n4JlMN7LHTpti0L1-6" target="ANa-n4JlMN7LHTpti0L1-15">
          <mxGeometry relative="1" as="geometry" />
        </mxCell>
        <mxCell id="ANa-n4JlMN7LHTpti0L1-70" value=".21" style="edgeLabel;html=1;align=center;verticalAlign=middle;resizable=0;points=[];fontSize=10;fontColor=#007FFF;" vertex="1" connectable="0" parent="ANa-n4JlMN7LHTpti0L1-61">
          <mxGeometry x="-0.7392" y="-2" relative="1" as="geometry">
            <mxPoint x="-1" y="3" as="offset" />
          </mxGeometry>
        </mxCell>
        <mxCell id="ANa-n4JlMN7LHTpti0L1-71" value=".22" style="edgeLabel;html=1;align=center;verticalAlign=middle;resizable=0;points=[];fontSize=10;fontColor=#007FFF;" vertex="1" connectable="0" parent="ANa-n4JlMN7LHTpti0L1-61">
          <mxGeometry x="0.4739" y="-1" relative="1" as="geometry">
            <mxPoint as="offset" />
          </mxGeometry>
        </mxCell>
        <mxCell id="ANa-n4JlMN7LHTpti0L1-63" style="edgeStyle=none;rounded=0;orthogonalLoop=1;jettySize=auto;html=1;exitX=0.5;exitY=1;exitDx=0;exitDy=0;entryX=0.625;entryY=0.2;entryDx=0;entryDy=0;entryPerimeter=0;strokeColor=#000000;fontSize=10;fontColor=#007FFF;endArrow=none;endFill=0;" edge="1" parent="1" source="ANa-n4JlMN7LHTpti0L1-6" target="ANa-n4JlMN7LHTpti0L1-15">
          <mxGeometry relative="1" as="geometry" />
        </mxCell>
        <mxCell id="ANa-n4JlMN7LHTpti0L1-65" value=".50" style="edgeLabel;html=1;align=center;verticalAlign=middle;resizable=0;points=[];fontSize=10;fontColor=#000000;" vertex="1" connectable="0" parent="ANa-n4JlMN7LHTpti0L1-63">
          <mxGeometry x="0.4489" y="2" relative="1" as="geometry">
            <mxPoint as="offset" />
          </mxGeometry>
        </mxCell>
        <mxCell id="ANa-n4JlMN7LHTpti0L1-67" value=".49" style="edgeLabel;html=1;align=center;verticalAlign=middle;resizable=0;points=[];fontSize=10;fontColor=#000000;" vertex="1" connectable="0" parent="ANa-n4JlMN7LHTpti0L1-63">
          <mxGeometry x="-0.6229" y="1" relative="1" as="geometry">
            <mxPoint as="offset" />
          </mxGeometry>
        </mxCell>
        <mxCell id="ANa-n4JlMN7LHTpti0L1-6" value="" style="image;html=1;image=img/lib/clip_art/networking/Router_Icon_128x128.png" vertex="1" parent="1">
          <mxGeometry x="450" y="750" width="80" height="80" as="geometry" />
        </mxCell>
        <mxCell id="ANa-n4JlMN7LHTpti0L1-75" style="edgeStyle=none;rounded=0;orthogonalLoop=1;jettySize=auto;html=1;entryX=0.25;entryY=1;entryDx=0;entryDy=0;strokeColor=#000000;fontSize=10;fontColor=#007FFF;endArrow=none;endFill=0;" edge="1" parent="1" source="ANa-n4JlMN7LHTpti0L1-9" target="ANa-n4JlMN7LHTpti0L1-59">
          <mxGeometry relative="1" as="geometry" />
        </mxCell>
        <mxCell id="ANa-n4JlMN7LHTpti0L1-9" value="GW:&amp;nbsp;172.18.94.254" style="outlineConnect=0;dashed=0;verticalLabelPosition=bottom;verticalAlign=top;align=center;html=1;shape=mxgraph.aws3.customer_gateway;fillColor=#F58534;gradientColor=none;" vertex="1" parent="1">
          <mxGeometry x="281" y="400" width="69" height="72" as="geometry" />
        </mxCell>
        <mxCell id="ANa-n4JlMN7LHTpti0L1-76" style="edgeStyle=none;rounded=0;orthogonalLoop=1;jettySize=auto;html=1;exitX=0.145;exitY=0.145;exitDx=0;exitDy=0;exitPerimeter=0;strokeColor=#007FFF;fontSize=10;fontColor=#007FFF;entryX=0.75;entryY=1;entryDx=0;entryDy=0;endArrow=none;endFill=0;" edge="1" parent="1" source="ANa-n4JlMN7LHTpti0L1-10" target="ANa-n4JlMN7LHTpti0L1-59">
          <mxGeometry relative="1" as="geometry">
            <mxPoint x="420" y="350" as="targetPoint" />
          </mxGeometry>
        </mxCell>
        <mxCell id="ANa-n4JlMN7LHTpti0L1-10" value="&lt;font style=&quot;background-color: rgb(255, 255, 255);&quot; color=&quot;#007fff&quot;&gt;GW:&amp;nbsp;172.29.72.161&lt;/font&gt;" style="outlineConnect=0;dashed=0;verticalLabelPosition=bottom;verticalAlign=top;align=center;html=1;shape=mxgraph.aws3.customer_gateway;fillColor=#F58534;gradientColor=none;" vertex="1" parent="1">
          <mxGeometry x="500" y="400" width="69" height="72" as="geometry" />
        </mxCell>
        <mxCell id="ANa-n4JlMN7LHTpti0L1-15" value="&lt;font style=&quot;font-size: 18px;&quot;&gt;&lt;b&gt;NTT UNO&lt;br&gt;ACG2129 &amp;amp; 447&lt;/b&gt;&lt;/font&gt;" style="ellipse;shape=cloud;whiteSpace=wrap;html=1;" vertex="1" parent="1">
          <mxGeometry x="274" y="870" width="295" height="160" as="geometry" />
        </mxCell>
        <mxCell id="ANa-n4JlMN7LHTpti0L1-47" style="rounded=0;orthogonalLoop=1;jettySize=auto;html=1;exitX=0.5;exitY=1;exitDx=0;exitDy=0;entryX=0;entryY=0.25;entryDx=0;entryDy=0;strokeColor=#000000;fontSize=10;fontColor=#007FFF;endArrow=none;endFill=0;" edge="1" parent="1" source="ANa-n4JlMN7LHTpti0L1-20" target="ANa-n4JlMN7LHTpti0L1-5">
          <mxGeometry relative="1" as="geometry" />
        </mxCell>
        <mxCell id="ANa-n4JlMN7LHTpti0L1-53" value="&lt;font color=&quot;#000000&quot;&gt;.242&lt;/font&gt;" style="edgeLabel;html=1;align=center;verticalAlign=middle;resizable=0;points=[];fontSize=10;fontColor=#007FFF;strokeColor=#000000;" vertex="1" connectable="0" parent="ANa-n4JlMN7LHTpti0L1-47">
          <mxGeometry x="0.688" relative="1" as="geometry">
            <mxPoint as="offset" />
          </mxGeometry>
        </mxCell>
        <mxCell id="ANa-n4JlMN7LHTpti0L1-48" style="edgeStyle=none;rounded=0;orthogonalLoop=1;jettySize=auto;html=1;exitX=0.75;exitY=1;exitDx=0;exitDy=0;strokeColor=#000000;fontSize=10;fontColor=#007FFF;entryX=-0.026;entryY=0.321;entryDx=0;entryDy=0;entryPerimeter=0;endArrow=none;endFill=0;" edge="1" parent="1" source="ANa-n4JlMN7LHTpti0L1-20" target="ANa-n4JlMN7LHTpti0L1-6">
          <mxGeometry relative="1" as="geometry" />
        </mxCell>
        <mxCell id="ANa-n4JlMN7LHTpti0L1-55" value="&lt;font color=&quot;#000000&quot;&gt;.243&lt;/font&gt;" style="edgeLabel;html=1;align=center;verticalAlign=middle;resizable=0;points=[];fontSize=10;fontColor=#007FFF;strokeColor=#000000;" vertex="1" connectable="0" parent="ANa-n4JlMN7LHTpti0L1-48">
          <mxGeometry x="0.8519" relative="1" as="geometry">
            <mxPoint as="offset" />
          </mxGeometry>
        </mxCell>
        <mxCell id="ANa-n4JlMN7LHTpti0L1-72" style="edgeStyle=none;rounded=0;orthogonalLoop=1;jettySize=auto;html=1;exitX=0.5;exitY=0;exitDx=0;exitDy=0;strokeColor=#000000;fontSize=10;fontColor=#007FFF;endArrow=none;endFill=0;" edge="1" parent="1" source="ANa-n4JlMN7LHTpti0L1-20" target="ANa-n4JlMN7LHTpti0L1-9">
          <mxGeometry relative="1" as="geometry" />
        </mxCell>
        <mxCell id="ANa-n4JlMN7LHTpti0L1-20" value="&lt;font style=&quot;font-size: 10px;&quot;&gt;VIP: 172.18.94.241&lt;/font&gt;" style="rounded=1;whiteSpace=wrap;html=1;labelBackgroundColor=#FFFFFF;fontSize=18;fontColor=#000000;" vertex="1" parent="1">
          <mxGeometry x="135" y="630" width="120" height="30" as="geometry" />
        </mxCell>
        <mxCell id="ANa-n4JlMN7LHTpti0L1-50" style="edgeStyle=none;rounded=0;orthogonalLoop=1;jettySize=auto;html=1;exitX=0.25;exitY=1;exitDx=0;exitDy=0;entryX=1;entryY=0.25;entryDx=0;entryDy=0;strokeColor=#007FFF;fontSize=10;fontColor=#007FFF;endArrow=none;endFill=0;" edge="1" parent="1" source="ANa-n4JlMN7LHTpti0L1-21" target="ANa-n4JlMN7LHTpti0L1-5">
          <mxGeometry relative="1" as="geometry" />
        </mxCell>
        <mxCell id="ANa-n4JlMN7LHTpti0L1-56" value=".175" style="edgeLabel;html=1;align=center;verticalAlign=middle;resizable=0;points=[];fontSize=10;fontColor=#007FFF;" vertex="1" connectable="0" parent="ANa-n4JlMN7LHTpti0L1-50">
          <mxGeometry x="0.8299" relative="1" as="geometry">
            <mxPoint as="offset" />
          </mxGeometry>
        </mxCell>
        <mxCell id="ANa-n4JlMN7LHTpti0L1-51" style="edgeStyle=none;rounded=0;orthogonalLoop=1;jettySize=auto;html=1;exitX=0.75;exitY=1;exitDx=0;exitDy=0;entryX=1;entryY=0.25;entryDx=0;entryDy=0;strokeColor=#007FFF;fontSize=10;fontColor=#007FFF;endArrow=none;endFill=0;" edge="1" parent="1" source="ANa-n4JlMN7LHTpti0L1-21" target="ANa-n4JlMN7LHTpti0L1-6">
          <mxGeometry relative="1" as="geometry" />
        </mxCell>
        <mxCell id="ANa-n4JlMN7LHTpti0L1-57" value=".176" style="edgeLabel;html=1;align=center;verticalAlign=middle;resizable=0;points=[];fontSize=10;fontColor=#007FFF;" vertex="1" connectable="0" parent="ANa-n4JlMN7LHTpti0L1-51">
          <mxGeometry x="0.699" y="2" relative="1" as="geometry">
            <mxPoint as="offset" />
          </mxGeometry>
        </mxCell>
        <mxCell id="ANa-n4JlMN7LHTpti0L1-73" style="edgeStyle=none;rounded=0;orthogonalLoop=1;jettySize=auto;html=1;exitX=0.5;exitY=0;exitDx=0;exitDy=0;strokeColor=#007FFF;fontSize=10;fontColor=#007FFF;endArrow=none;endFill=0;" edge="1" parent="1" source="ANa-n4JlMN7LHTpti0L1-21" target="ANa-n4JlMN7LHTpti0L1-10">
          <mxGeometry relative="1" as="geometry" />
        </mxCell>
        <mxCell id="ANa-n4JlMN7LHTpti0L1-21" value="&lt;font color=&quot;#007fff&quot; style=&quot;font-size: 10px;&quot;&gt;VIP: 172.29.72.174&lt;/font&gt;" style="rounded=1;whiteSpace=wrap;html=1;labelBackgroundColor=#FFFFFF;fontSize=18;fontColor=#000000;" vertex="1" parent="1">
          <mxGeometry x="580" y="640" width="120" height="30" as="geometry" />
        </mxCell>
        <mxCell id="ANa-n4JlMN7LHTpti0L1-77" style="edgeStyle=none;rounded=0;orthogonalLoop=1;jettySize=auto;html=1;exitX=0.5;exitY=0;exitDx=0;exitDy=0;entryX=0.5;entryY=1;entryDx=0;entryDy=0;strokeColor=#000000;fontSize=10;fontColor=#007FFF;endArrow=none;endFill=0;" edge="1" parent="1" source="ANa-n4JlMN7LHTpti0L1-59" target="ANa-n4JlMN7LHTpti0L1-3">
          <mxGeometry relative="1" as="geometry" />
        </mxCell>
        <mxCell id="ANa-n4JlMN7LHTpti0L1-59" value="&lt;span style=&quot;font-size: 18px; background-color: rgb(255, 181, 112);&quot;&gt;&lt;b&gt;CANON&lt;br&gt;Network&lt;/b&gt;&lt;/span&gt;" style="rounded=1;whiteSpace=wrap;html=1;labelBackgroundColor=#FFFFFF;strokeColor=#000000;fontSize=10;fontColor=#000000;fillColor=#FFB570;" vertex="1" parent="1">
          <mxGeometry x="300" y="260" width="250" height="90" as="geometry" />
        </mxCell>
      </root>
    </mxGraphModel>
  </diagram>
</mxfile>
